# xmcd CD database file
#
# Track frame offsets:
#	150
#	19941
#	44395
#	70607
#	108560
#	131649
#	154904
#	172966
#	200978
#	219775
#	243049
#	272668
#
# Disc length: 4007 seconds
#
# Revision: 0
# Processed by: cddbd v1.5.1PL0 Copyright (c) Steve Scherf et al.
# Submitted via: cdripper 1.0.10
#
DISCID=a60fa50c
DTITLE=Poncho Sanchez - Instant Party
DYEAR=2004
DGENRE=Jazz
TTITLE0=Hey Bud
TTITLE1=Joseito
TTITLE2=Listen Here/Cold Duck Time
TTITLE3=Cuidate Compay
TTITLE4=Chile con Soul
TTITLE5=Co Co May May
TTITLE6=Ixtapa
TTITLE7=Lip Smacker
TTITLE8=Sin Timbal
TTITLE9=One Mint Julep
TTITLE10=Bésame Mama
TTITLE11=Watermelon Man
EXTD=YEAR: 2004
EXTT0=
EXTT1=
EXTT2=
EXTT3=
EXTT4=
EXTT5=
EXTT6=
EXTT7=
EXTT8=
EXTT9=
EXTT10=
EXTT11=
PLAYORDER=
